PathFileType	4	(X/Y/Z)	C:\Users\°ÂÌØÂü\Desktop\20210112\bx_n_10_901-Unnamed.trc
DataRate	CameraRate	NumFrames	NumMarkers	Units	OrigDataRate	OrigDataStartFrame	OrigNumFrames
50.00	50.00	       4	0	mm	50.00	454	       518
Frame#	Time	
		

454	9.060	-730.55646	117.29932	1843.75061	-561.63849	216.70839	810.71466	-560.66986	-3.21254	1053.92163	-767.54761	94.79052	1049.94421	-560.57758	-2.08925	801.72186	-669.12360	53.95485	159.47633	-675.72144	270.94434	742.46332	-583.73419	111.29234	1357.05200	-709.74463	251.57832	643.10260	-646.81110	18.47870	518.12842	-663.32355	206.51868	532.77063	-757.42432	257.89984	504.23193	-517.55957	-72.88223	143.10796	-547.15332	-30.10880	163.25630	-677.81110	145.12880	575.56329	-789.32410	44.11171	174.12544	-595.70868	24.82200	167.74323	-673.27722	171.97543	157.70181	-710.11145	153.09138	216.86177	-794.26794	178.10170	183.55719	-765.79382	227.04401	205.73859	-590.14478	219.17986	173.58365	-882.59625	296.22037	144.63243	-554.11279	256.93433	164.40985	-705.41516	293.83026	1532.79810	-622.64832	306.98001	158.59236	-527.94458	304.49655	146.67267	-687.18835	-32.44783	619.25879	-630.37921	-71.69041	871.78723	-746.10571	-39.88834	491.58670	-756.66602	-15.59549	208.15321	-876.14740	-78.90651	141.30760	-657.25256	-59.77852	758.93304	-714.66589	248.06230	576.75702	-658.82471	298.12143	158.11066	-697.70709	-29.33668	569.62463				-607.59277	-76.02386	157.28175	-649.40326	-68.37944	161.08292	-574.50616	245.66681	1063.22180	-687.20172	-64.78388	1544.33545	-662.47150	286.47717	872.73853	-711.82928	72.36414	216.30626	-671.97772	75.84201	574.85913	
455	9.080	-730.44879	117.27572	1843.81311	-561.68732	216.69846	810.76019	-561.21655	-2.93631	1054.00256	-767.79016	94.75881	1050.12842	-561.10010	-2.21804	801.88501	-669.10651	53.79605	159.71272	-675.89972	271.13013	742.42236	-584.13727	111.27653	1357.10583	-709.62524	251.59003	642.88342	-646.82178	18.23073	518.53149	-663.32355	206.51868	532.77063	-757.39624	257.84445	504.02393	-517.50952	-72.75203	143.11571	-547.03497	-30.27316	163.24872	-677.76526	144.91266	575.79242	-789.26434	44.31084	174.09264	-595.77216	24.83317	167.67125	-673.23505	171.94397	157.63565	-710.09015	153.05780	216.86852	-794.54877	177.96959	183.69409	-765.69476	227.20465	205.79857	-589.83960	219.31847	173.79149	-882.40857	296.04825	144.67671	-554.19574	256.89258	164.24106	-705.90509	293.69003	1532.39209	-622.60901	307.06552	158.59622	-527.90778	304.36624	146.72336	-687.41669	-32.62752	619.08777	-630.93719	-71.92162	871.92377	-745.90564	-40.00320	491.75677	-756.61169	-15.78111	208.07845	-875.95648	-78.79716	141.44162	-657.35919	-59.68489	758.81024	-714.73248	247.85574	577.02032	-658.75751	298.10135	158.19753	-697.74182	-29.23944	569.60071				-607.66718	-75.99619	157.46350	-649.21313	-68.24354	161.16684	-574.59424	245.78050	1063.21167	-687.56604	-64.53629	1544.24609	-662.51025	286.34485	872.40985	-711.86536	72.29231	216.42882	-671.91449	75.76492	574.95807	
456	9.100	-730.37238	117.42903	1843.87585	-561.91980	216.66528	810.58337	-561.52789	-2.93376	1054.13843	-767.86536	94.83669	1050.20935	-561.25452	-2.32691	802.27228	-669.06354	53.83244	159.24045	-676.04095	271.31149	742.35651	-584.54480	111.53697	1356.99536	-709.74365	251.73402	643.24170	-646.79913	18.16754	518.62695	-663.32355	206.51868	532.77063	-757.53326	257.92584	504.10486	-517.50952	-72.75203	143.11571	-547.15405	-30.35081	163.20331	-677.76526	144.91266	575.79242	-789.24677	44.29148	173.99507	-595.67163	24.68347	167.70436	-673.23029	172.11104	157.84097	-710.11145	153.09138	216.86177	-794.27942	178.15143	183.44299	-765.69476	227.20465	205.79857	-590.06378	219.09491	173.58502	-882.53638	296.09531	144.59125	-553.96289	256.72736	164.33594	-706.13605	294.00552	1532.36316	-622.74066	306.89835	158.51286	-527.99078	304.21622	146.57008	-687.25842	-32.44160	619.18713	-630.93719	-71.92162	871.92377	-745.97083	-39.94498	491.67444	-756.65686	-15.68829	208.06354	-875.99792	-78.69180	141.55168	-657.40460	-59.70477	758.70331	-714.78778	247.94769	576.84210	-658.79346	298.21518	158.32751	-697.68127	-29.23752	569.69855				-607.71429	-76.09800	157.22853	-649.26343	-68.30699	161.03732	-574.55420	245.68559	1063.30286	-687.89679	-64.46693	1544.01477	-662.51025	286.34485	872.40985	-712.04132	72.08520	216.13347	-672.17444	75.99064	574.88953	
457	9.120	-730.27313	117.44962	1843.98474	-562.19720	216.53020	810.58789	-561.67310	-2.97605	1054.20642	-768.03113	94.97133	1050.12036	-561.38257	-2.33335	802.38879	-669.18060	53.90004	159.38699	-676.03833	271.23953	742.44025	-584.87549	111.61932	1357.03076	-709.77051	251.60938	642.94397	-646.68024	18.15072	518.62897	-663.34387	206.47591	532.84454	-757.52460	257.89056	504.07364	-517.55957	-72.88223	143.10796	-547.30328	-30.45347	163.43158	-677.76526	144.91266	575.79242	-789.22528	44.32435	174.16499	-595.65869	24.83129	167.73540	-673.23505	171.94397	157.63565	-710.18695	153.05449	216.75099	-794.43268	178.05298	183.60594	-765.77057	227.25523	205.81136	-590.19421	219.06371	173.40550	-882.48401	296.23941	144.76350	-554.04187	256.69260	164.43335	-706.56183	294.12823	1532.36255	-622.76294	307.11493	158.46191	-527.94458	304.49655	146.67267	-687.40826	-32.55072	619.19092	-630.98920	-71.89953	872.01147	-746.04047	-39.72686	491.41632	-756.68665	-15.49106	208.22592	-875.95648	-78.79716	141.44162	-657.61133	-59.55538	758.51959	-714.92517	247.88348	577.05719	-658.87964	298.18927	158.12433	-697.68097	-29.28069	569.71631				-607.59277	-76.02386	157.28175	-649.33789	-68.22129	161.24178	-574.75800	245.61559	1063.32227	-688.48279	-64.51919	1544.06482	-662.64130	286.50302	872.76550	-712.04132	72.08520	216.13347	-672.18744	75.90781	575.01508	
